HIERARCHY
ROOT Hips
{
	OFFSET	0.00	0.00	0.00
	CHANNELS 6 Xposition Yposition Zposition Zrotation Xrotation Yrotation
	JOINT Spine
	{
		OFFSET	 0.00	0.01	 0.00
		CHANNELS 3 Zrotation Xrotation Yrotation
		JOINT Spine1
		{
			OFFSET	 0.00	 2.45913012437421	 0.00
			CHANNELS 3 Zrotation Xrotation Yrotation
            JOINT Neck
            {
                OFFSET	 0.00	 2.48462964506057	 0.00
                CHANNELS 3 Zrotation Xrotation Yrotation
                JOINT Head
                {
                    OFFSET	 0.00	 0.927524780924562	 0.00
                    CHANNELS 3 Zrotation Xrotation Yrotation
                    End Site 
                    {
                        OFFSET	 0.00	 1.14999962169752	 0.00
                    }
                }
            }
			JOINT LeftShoulder
			{
				OFFSET	 0.00	 2.48462964506057	 0.00
				CHANNELS 3 Zrotation Xrotation Yrotation
				JOINT LeftUpArm
				{
					OFFSET	 0.00	 1.24881979654096	 0.00
					CHANNELS 3 Zrotation Xrotation Yrotation
					JOINT LeftForeArm
					{
						OFFSET	 0.00	2.59758046908119	 0.00
						CHANNELS 3 Zrotation Xrotation Yrotation
						JOINT LeftHand
						{
							OFFSET	 0.00	2.45542024364365	 0.00
							CHANNELS 3 Zrotation Xrotation Yrotation
							JOINT LeftHandThumb 
							{
								OFFSET	 0.00	0.00	 0.00
								CHANNELS 3 Zrotation Xrotation Yrotation
								End Site
								{
									OFFSET	 0.00	0.00	1.00000003353624
								}
							}
							JOINT L_Wrist_End 
							{
								OFFSET	 0.00	0.99999967115358	 0.00
								CHANNELS 3 Zrotation Xrotation Yrotation
								End Site 
								{
									OFFSET	 0.00	 0.00	 0.00
								}
							}
						}
					}
				}
			}
			JOINT RightShoulder
			{
				OFFSET	 0.00	 2.48462964506057	 0.00
				CHANNELS 3 Zrotation Xrotation Yrotation
				JOINT RightUpArm
				{
					OFFSET	 0.00	 1.24881979654096	 0.00
					CHANNELS 3 Zrotation Xrotation Yrotation
					JOINT RightForeArm
					{
						OFFSET	 0.00	2.59758046908119	 0.00
						CHANNELS 3 Zrotation Xrotation Yrotation
						JOINT RightHand
						{
							OFFSET	 0.00	2.45542024364365	 0.00
							CHANNELS 3 Zrotation Xrotation Yrotation
							JOINT RightHandThumb 
							{
								OFFSET	 0.00	0.00	 0.00
								CHANNELS 3 Zrotation Xrotation Yrotation
								End Site
								{
									OFFSET	 0.00	0.00	1.00000003353624
								}
							}
							JOINT R_Wrist_End 
							{
								OFFSET	 0.00	0.99999967115358	 0.00
								CHANNELS 3 Zrotation Xrotation Yrotation
								End Site 
								{
									OFFSET	 0.00	 0.00	 0.00
								}
							}
						}
					}
				}
			}
		}
	}
	JOINT LeftUpLeg
	{
		OFFSET	 1.2719394002717	 0.00	 0.00
		CHANNELS 3 Zrotation Xrotation Yrotation
		JOINT LeftLowLeg
		{
			OFFSET	 0.00	-4.3429100912261	 0.00
			CHANNELS 3 Zrotation Xrotation Yrotation
			JOINT LeftFoot
			{
				OFFSET	 0.00	-4.48767017425826	 0.00
				CHANNELS 3 Zrotation Xrotation Yrotation
				JOINT LeftToeBase
                {
                    OFFSET	 0.00	0.00	 1.51507020887566
                    CHANNELS 3 Zrotation Xrotation Yrotation
                    End Site 
                    {
                        OFFSET	 0.00	0.00	 0.75000010571191
                    }
                }
			}
		}
	}
	JOINT RightUpLeg
	{
		OFFSET	 -1.2719393604653	 0.00	 0.00
		CHANNELS 3 Zrotation Xrotation Yrotation
		JOINT RightLowLeg
		{
			OFFSET	 0.00	-4.3429100912261	 0.00
			CHANNELS 3 Zrotation Xrotation Yrotation
			JOINT RightFoot
			{
				OFFSET	 0.00	-4.48767017425826	 0.00
				CHANNELS 3 Zrotation Xrotation Yrotation
				JOINT RightToeBase
                {
                    OFFSET	 0.00	0.00	 1.51507020887566
                    CHANNELS 3 Zrotation Xrotation Yrotation
                    End Site 
                    {
                        OFFSET	 0.00	0.00	 0.749999965609858
                    }
                }   
			}
		}
	}
}
MOTION 
Frames:	11 
Frame Time: 0.02 
  -4.703250122070313 -2.0834300231933596 9.20593017578125 -109.068 85.5268 119.429 -4.7193 -13.2329 0.0821648 11.6243 9.94387 -3.84071 -3.44575 67.5419 -7.66046 66.7228 -82.9542 769.641 -125.655106 -1.64157 8.67286 -33.5362 15.0456 26.9971 0.0 113.273 0.0 65.5556 2.77412 -4.14171 0.0 0.0 0.0 0.0 0.0 0.0 117.5026 -1.44963 -380.199 31.3247 19.7527 -11.6914 0.0 107.168 0.0 -88.592 19.5199 9.79134 0.0 0.0 0.0 0.0 0.0 0.0 -0.412973 -2.63535 5.79815 0.0 8.82858 0.0 -12.3264 1.4168997 3.09358 0.0 -30.8986 0.0 3.23229 -13.1797 9.22454 0.0 20.3304 0.0 20.243 8.486179 -8.46764 0.0 -33.582397 0.0 
  -4.700260009765625 -2.14552001953125 9.21030029296875 -108.794 85.2859 119.453 -4.46198 -13.6965 0.125659 11.7268 10.0849 -3.9079 -4.22992 67.5946 -6.86417 67.6833 -83.187 770.634 -125.7449 -1.71981 8.46959 -33.6142 15.6311 27.6125 0.0 114.011 0.0 63.9373 1.00577 -3.83071 0.0 0.0 0.0 0.0 0.0 0.0 117.4522 -1.26332 -380.421 31.1478 20.1471 -11.7694 0.0 107.695 0.0 -88.7177 19.3528 9.53629 0.0 0.0 0.0 0.0 0.0 0.0 -0.174732 -2.41917 5.34476 0.0 8.91037 0.0 -12.4021 1.1127996 3.24066 0.0 -30.819199 0.0 3.25854 -12.6594 10.6893 0.0 18.2865 0.0 20.3265 9.04183 -9.50464 0.0 -33.2701 0.0 
  -4.697980041503906 -2.2057400512695313 9.213560180664063 -107.636 85.1055 118.558 -3.4853 -14.4242 0.106751 10.4089 11.0418 -4.46692 -5.58878 67.197 -5.02073 70.8095 -83.1256 773.983 -125.185 -2.29674 7.63325 -33.7224 16.15 28.059 0.0 114.651 0.0 62.6768 -0.461122 -2.96235 0.0 0.0 0.0 0.0 0.0 0.0 118.1087 -0.297777 -380.545 30.9728 20.4887 -11.9257 0.0 108.14 0.0 -88.9967 19.5264 9.43489 0.0 0.0 0.0 0.0 0.0 0.0 0.0450818 -2.0996 4.87651 0.0 8.96418 0.0 -12.4401 0.7911997 3.47372 0.0 -30.683601 0.0 3.32425 -12.1885 11.7155 0.0 17.1034 0.0 20.9783 9.3658695 -10.1926 0.0 -33.873 0.0 
  -4.698179931640625 -2.2649200439453123 9.216160278320313 -106.897 84.9414 118.093 -2.84479 -14.9792 0.235522 9.64674 11.5718 -4.67071 -5.69823 67.0 -4.7381 73.3042 -83.0322 776.695 -124.7693 -2.40906 7.47723 -33.8767 16.5434 28.2262 0.0 115.238 0.0 61.5309 -1.68784 -2.36896 0.0 0.0 0.0 0.0 0.0 0.0 118.4783 -0.0418178 -380.379 30.8647 20.8434 -12.1634 0.0 108.469 0.0 -88.8941 19.6782 9.08247 0.0 0.0 0.0 0.0 0.0 0.0 0.258963 -1.82176 4.51896 0.0 9.0334 0.0 -12.5033 0.5010004 3.59 0.0 -30.653 0.0 3.37166 -11.7818 11.6083 0.0 16.5322 0.0 20.8202 9.439051 -10.3108 0.0 -33.4506 0.0 
  -4.702319946289062 -2.321719970703125 9.218369750976562 -106.678 84.8566 118.154 -3.15937 -15.1885 0.205777 10.47 11.354 -4.52199 -5.66373 67.0965 -5.06066 72.9359 -83.3226 776.413 -124.9884 -2.11157 8.05675 -34.0256 16.7978 28.0551 0.0 115.683 0.0 60.5393 -2.2996 -2.21947 0.0 0.0 0.0 0.0 0.0 0.0 118.0454 -0.315158 -380.139 30.8558 21.1525 -12.5131 0.0 108.796 0.0 -88.9035 19.6807 8.66349 0.0 0.0 0.0 0.0 0.0 0.0 0.440909 -1.60949 4.57057 0.0 9.19564 0.0 -12.5297 0.32649994 3.3207 0.0 -30.507 0.0 3.32559 -11.3634 10.4847 0.0 16.382 0.0 20.8088 9.45506 -9.52457 0.0 -34.011803 0.0 
  -4.708940124511718 -2.377149963378906 9.220640258789063 -106.371 84.7659 118.161 -3.79246 -15.2222 -0.0205377 11.8971 10.8477 -4.39317 -6.69649 67.2912 -4.31061 71.1265 -83.8638 774.471 -125.5288 -1.94603 8.4691 -34.1342 16.8286 27.8649 0.0 116.16 0.0 59.4407 -2.9597 -2.80601 0.0 0.0 0.0 0.0 0.0 0.0 117.3112 -0.584884 -380.158 30.8012 21.4942 -12.7569 0.0 109.113 0.0 -89.0971 20.0823 8.56592 0.0 0.0 0.0 0.0 0.0 0.0 0.641014 -1.41976 4.46838 0.0 9.36297 0.0 -12.5948 0.14659977 3.15494 0.0 -30.476799 0.0 3.32993 -10.8437 8.95144 0.0 16.1004 0.0 20.0245 9.432779 -8.78809 0.0 -34.6053 0.0 
  -4.715710144042969 -2.432449951171875 9.221729736328125 -107.109 84.5604 119.157 -3.64692 -15.3614 0.0416297 11.9776 10.2481 -4.2961 -6.82234 67.756 -4.31379 72.4553 -84.0215 775.762 -125.6095 -1.92053 8.86539 -34.0543 16.8587 27.7739 0.0 116.484 0.0 58.9019 -3.40314 -2.89389 0.0 0.0 0.0 0.0 0.0 0.0 117.4058 -0.869403 -380.294 30.5373 21.7441 -12.8643 0.0 109.49 0.0 -88.6485 19.7445 8.34003 0.0 0.0 0.0 0.0 0.0 0.0 0.895648 -1.31083 4.30008 0.0 9.42889 0.0 -12.719 -0.087800026 3.03015 0.0 -30.4895 0.0 3.44609 -10.3695 7.56196 0.0 15.5297 0.0 19.2233 9.51296 -8.34863 0.0 -34.3126 0.0 
  -4.724179992675781 -2.489029998779297 9.225349731445313 -108.964 84.2529 121.203 -4.05718 -16.0809 -0.1599 13.1054 10.4333 -4.33838 -7.66194 67.5688 -3.64283 70.0714 -84.4092 773.337 -126.0431 -1.85802 8.74991 -34.189 16.8908 27.6751 0.0 116.891 0.0 57.5848 -4.18573 -3.05704 0.0 0.0 0.0 0.0 0.0 0.0 116.7688 -0.817216 -379.5 30.8574 21.7267 -13.673 0.0 109.809 0.0 -88.792 19.8987 8.03295 0.0 0.0 0.0 0.0 0.0 0.0 1.19564 -1.33756 4.24831 0.0 9.48234 0.0 -12.8328 -0.24849987 2.89693 0.0 -30.513 0.0 3.66553 -9.92002 6.75621 0.0 14.7425 0.0 18.5283 9.56936 -8.22466 0.0 -34.150497 0.0 
  -4.732640075683594 -2.5452099609375 9.226959838867188 -111.205 83.9089 123.552 -4.06727 -16.6557 -0.144005 13.5093 10.2192 -4.27274 -8.00765 67.6867 -3.39699 70.0476 -84.5979 773.363 -126.218704 -1.85816 8.72977 -34.2143 16.8773 27.6386 0.0 117.261 0.0 56.1974 -4.8252 -3.36329 0.0 0.0 0.0 0.0 0.0 0.0 116.5513 -0.871482 -379.077 31.0142 21.7156 -14.1684 0.0 110.201 0.0 -88.6743 19.9092 7.32672 0.0 0.0 0.0 0.0 0.0 0.0 1.48463 -1.39067 4.26743 0.0 9.48011 0.0 -12.938 -0.45979977 2.76773 0.0 -30.4963 0.0 3.95876 -9.47543 6.73924 0.0 13.8539 0.0 18.2468 9.438869 -8.62977 0.0 -33.8275 0.0 
  -4.740669860839843 -2.6004901123046875 9.228569946289063 -113.531 83.5808 125.918 -4.1091 -17.2802 -0.145976 13.8857 10.0705 -4.22249 -8.17688 67.7069 -3.34075 69.9554 -84.761 773.401 -126.425095 -1.9039 8.62567 -34.1953 16.8616 27.5253 0.0 117.751 0.0 54.4758 -5.96612 -3.841 0.0 0.0 0.0 0.0 0.0 0.0 116.3579 -0.874017 -378.993 30.9855 21.9811 -14.3478 0.0 110.557 0.0 -88.7737 19.838 6.68165 0.0 0.0 0.0 0.0 0.0 0.0 1.72989 -1.41781 4.2868 0.0 9.40798 0.0 -13.0573 -0.6246004 2.67789 0.0 -30.4673 0.0 4.17705 -9.12037 6.63659 0.0 13.0945 0.0 18.0089 9.34091 -8.74079 0.0 -33.8487 0.0 
  -4.748469848632812 -2.65364990234375 9.22885986328125 -115.434 83.2751 127.773 -3.80908 -17.9969 -0.112401 13.6912 10.2716 -4.37045 -9.0624 67.4608 -2.31404 71.8918 -84.9152 775.374 -126.3648 -2.19203 8.06979 -34.1538 16.9681 27.6994 0.0 118.111 0.0 53.1903 -6.72935 -4.40565 0.0 0.0 0.0 0.0 0.0 0.0 116.5437 -0.561464 -379.058 30.6963 22.4007 -14.3526 0.0 111.005 0.0 -88.9226 19.6687 5.94128 0.0 0.0 0.0 0.0 0.0 0.0 1.94635 -1.39529 4.24438 0.0 9.32169 0.0 -13.1825 -0.84420013 2.73047 0.0 -30.43 0.0 4.39456 -8.74066 6.93657 0.0 12.3321 0.0 17.8007 9.17326 -9.02849 0.0 -33.465 0.0 
